<?xml version="1.0" encoding="UTF-8"?>
<!DOCTYPE svg PUBLIC "-//W3C//DTD SVG 1.1//EN" "http://www.w3.org/Graphics/SVG/1.1/DTD/svg11.dtd">
<svg version="1.1" xmlns="http://www.w3.org/2000/svg" xmlns:xlink="http://www.w3.org/1999/xlink" x="0" y="0" width="1194" height="834" viewBox="0, 0, 1194, 834">
  <g id="Background">
    <rect x="0" y="0" width="1194" height="834" fill="#FFFFFF"/>
    <g stroke-width="1px">
      <line x1="12" y1="0" x2="12" y2="834" stroke="#AAAAAA" stroke-opacity="0.25"/>
      <line x1="24" y1="0" x2="24" y2="834" stroke="#AAAAAA" stroke-opacity="0.25"/>
      <line x1="36" y1="0" x2="36" y2="834" stroke="#AAAAAA" stroke-opacity="0.25"/>
      <line x1="48" y1="0" x2="48" y2="834" stroke="#AAAAAA" stroke-opacity="0.25"/>
      <line x1="60" y1="0" x2="60" y2="834" stroke="#AAAAAA" stroke-opacity="0.25"/>
      <line x1="72" y1="0" x2="72" y2="834" stroke="#AAAAAA" stroke-opacity="0.5"/>
      <line x1="84" y1="0" x2="84" y2="834" stroke="#AAAAAA" stroke-opacity="0.25"/>
      <line x1="96" y1="0" x2="96" y2="834" stroke="#AAAAAA" stroke-opacity="0.25"/>
      <line x1="108" y1="0" x2="108" y2="834" stroke="#AAAAAA" stroke-opacity="0.25"/>
      <line x1="120" y1="0" x2="120" y2="834" stroke="#AAAAAA" stroke-opacity="0.25"/>
      <line x1="132" y1="0" x2="132" y2="834" stroke="#AAAAAA" stroke-opacity="0.25"/>
      <line x1="144" y1="0" x2="144" y2="834" stroke="#AAAAAA" stroke-opacity="0.5"/>
      <line x1="156" y1="0" x2="156" y2="834" stroke="#AAAAAA" stroke-opacity="0.25"/>
      <line x1="168" y1="0" x2="168" y2="834" stroke="#AAAAAA" stroke-opacity="0.25"/>
      <line x1="180" y1="0" x2="180" y2="834" stroke="#AAAAAA" stroke-opacity="0.25"/>
      <line x1="192" y1="0" x2="192" y2="834" stroke="#AAAAAA" stroke-opacity="0.25"/>
      <line x1="204" y1="0" x2="204" y2="834" stroke="#AAAAAA" stroke-opacity="0.25"/>
      <line x1="216" y1="0" x2="216" y2="834" stroke="#AAAAAA" stroke-opacity="0.5"/>
      <line x1="228" y1="0" x2="228" y2="834" stroke="#AAAAAA" stroke-opacity="0.25"/>
      <line x1="240" y1="0" x2="240" y2="834" stroke="#AAAAAA" stroke-opacity="0.25"/>
      <line x1="252" y1="0" x2="252" y2="834" stroke="#AAAAAA" stroke-opacity="0.25"/>
      <line x1="264" y1="0" x2="264" y2="834" stroke="#AAAAAA" stroke-opacity="0.25"/>
      <line x1="276" y1="0" x2="276" y2="834" stroke="#AAAAAA" stroke-opacity="0.25"/>
      <line x1="288" y1="0" x2="288" y2="834" stroke="#AAAAAA" stroke-opacity="0.5"/>
      <line x1="300" y1="0" x2="300" y2="834" stroke="#AAAAAA" stroke-opacity="0.25"/>
      <line x1="312" y1="0" x2="312" y2="834" stroke="#AAAAAA" stroke-opacity="0.25"/>
      <line x1="324" y1="0" x2="324" y2="834" stroke="#AAAAAA" stroke-opacity="0.25"/>
      <line x1="336" y1="0" x2="336" y2="834" stroke="#AAAAAA" stroke-opacity="0.25"/>
      <line x1="348" y1="0" x2="348" y2="834" stroke="#AAAAAA" stroke-opacity="0.25"/>
      <line x1="360" y1="0" x2="360" y2="834" stroke="#AAAAAA" stroke-opacity="0.5"/>
      <line x1="372" y1="0" x2="372" y2="834" stroke="#AAAAAA" stroke-opacity="0.25"/>
      <line x1="384" y1="0" x2="384" y2="834" stroke="#AAAAAA" stroke-opacity="0.25"/>
      <line x1="396" y1="0" x2="396" y2="834" stroke="#AAAAAA" stroke-opacity="0.25"/>
      <line x1="408" y1="0" x2="408" y2="834" stroke="#AAAAAA" stroke-opacity="0.25"/>
      <line x1="420" y1="0" x2="420" y2="834" stroke="#AAAAAA" stroke-opacity="0.25"/>
      <line x1="432" y1="0" x2="432" y2="834" stroke="#AAAAAA" stroke-opacity="0.5"/>
      <line x1="444" y1="0" x2="444" y2="834" stroke="#AAAAAA" stroke-opacity="0.25"/>
      <line x1="456" y1="0" x2="456" y2="834" stroke="#AAAAAA" stroke-opacity="0.25"/>
      <line x1="468" y1="0" x2="468" y2="834" stroke="#AAAAAA" stroke-opacity="0.25"/>
      <line x1="480" y1="0" x2="480" y2="834" stroke="#AAAAAA" stroke-opacity="0.25"/>
      <line x1="492" y1="0" x2="492" y2="834" stroke="#AAAAAA" stroke-opacity="0.25"/>
      <line x1="504" y1="0" x2="504" y2="834" stroke="#AAAAAA" stroke-opacity="0.5"/>
      <line x1="516" y1="0" x2="516" y2="834" stroke="#AAAAAA" stroke-opacity="0.25"/>
      <line x1="528" y1="0" x2="528" y2="834" stroke="#AAAAAA" stroke-opacity="0.25"/>
      <line x1="540" y1="0" x2="540" y2="834" stroke="#AAAAAA" stroke-opacity="0.25"/>
      <line x1="552" y1="0" x2="552" y2="834" stroke="#AAAAAA" stroke-opacity="0.25"/>
      <line x1="564" y1="0" x2="564" y2="834" stroke="#AAAAAA" stroke-opacity="0.25"/>
      <line x1="576" y1="0" x2="576" y2="834" stroke="#AAAAAA" stroke-opacity="0.5"/>
      <line x1="588" y1="0" x2="588" y2="834" stroke="#AAAAAA" stroke-opacity="0.25"/>
      <line x1="600" y1="0" x2="600" y2="834" stroke="#AAAAAA" stroke-opacity="0.25"/>
      <line x1="612" y1="0" x2="612" y2="834" stroke="#AAAAAA" stroke-opacity="0.25"/>
      <line x1="624" y1="0" x2="624" y2="834" stroke="#AAAAAA" stroke-opacity="0.25"/>
      <line x1="636" y1="0" x2="636" y2="834" stroke="#AAAAAA" stroke-opacity="0.25"/>
      <line x1="648" y1="0" x2="648" y2="834" stroke="#AAAAAA" stroke-opacity="0.5"/>
      <line x1="660" y1="0" x2="660" y2="834" stroke="#AAAAAA" stroke-opacity="0.25"/>
      <line x1="672" y1="0" x2="672" y2="834" stroke="#AAAAAA" stroke-opacity="0.25"/>
      <line x1="684" y1="0" x2="684" y2="834" stroke="#AAAAAA" stroke-opacity="0.25"/>
      <line x1="696" y1="0" x2="696" y2="834" stroke="#AAAAAA" stroke-opacity="0.25"/>
      <line x1="708" y1="0" x2="708" y2="834" stroke="#AAAAAA" stroke-opacity="0.25"/>
      <line x1="720" y1="0" x2="720" y2="834" stroke="#AAAAAA" stroke-opacity="0.5"/>
      <line x1="732" y1="0" x2="732" y2="834" stroke="#AAAAAA" stroke-opacity="0.25"/>
      <line x1="744" y1="0" x2="744" y2="834" stroke="#AAAAAA" stroke-opacity="0.25"/>
      <line x1="756" y1="0" x2="756" y2="834" stroke="#AAAAAA" stroke-opacity="0.25"/>
      <line x1="768" y1="0" x2="768" y2="834" stroke="#AAAAAA" stroke-opacity="0.25"/>
      <line x1="780" y1="0" x2="780" y2="834" stroke="#AAAAAA" stroke-opacity="0.25"/>
      <line x1="792" y1="0" x2="792" y2="834" stroke="#AAAAAA" stroke-opacity="0.5"/>
      <line x1="804" y1="0" x2="804" y2="834" stroke="#AAAAAA" stroke-opacity="0.25"/>
      <line x1="816" y1="0" x2="816" y2="834" stroke="#AAAAAA" stroke-opacity="0.25"/>
      <line x1="828" y1="0" x2="828" y2="834" stroke="#AAAAAA" stroke-opacity="0.25"/>
      <line x1="840" y1="0" x2="840" y2="834" stroke="#AAAAAA" stroke-opacity="0.25"/>
      <line x1="852" y1="0" x2="852" y2="834" stroke="#AAAAAA" stroke-opacity="0.25"/>
      <line x1="864" y1="0" x2="864" y2="834" stroke="#AAAAAA" stroke-opacity="0.5"/>
      <line x1="876" y1="0" x2="876" y2="834" stroke="#AAAAAA" stroke-opacity="0.25"/>
      <line x1="888" y1="0" x2="888" y2="834" stroke="#AAAAAA" stroke-opacity="0.25"/>
      <line x1="900" y1="0" x2="900" y2="834" stroke="#AAAAAA" stroke-opacity="0.25"/>
      <line x1="912" y1="0" x2="912" y2="834" stroke="#AAAAAA" stroke-opacity="0.25"/>
      <line x1="924" y1="0" x2="924" y2="834" stroke="#AAAAAA" stroke-opacity="0.25"/>
      <line x1="936" y1="0" x2="936" y2="834" stroke="#AAAAAA" stroke-opacity="0.5"/>
      <line x1="948" y1="0" x2="948" y2="834" stroke="#AAAAAA" stroke-opacity="0.25"/>
      <line x1="960" y1="0" x2="960" y2="834" stroke="#AAAAAA" stroke-opacity="0.25"/>
      <line x1="972" y1="0" x2="972" y2="834" stroke="#AAAAAA" stroke-opacity="0.25"/>
      <line x1="984" y1="0" x2="984" y2="834" stroke="#AAAAAA" stroke-opacity="0.25"/>
      <line x1="996" y1="0" x2="996" y2="834" stroke="#AAAAAA" stroke-opacity="0.25"/>
      <line x1="1008" y1="0" x2="1008" y2="834" stroke="#AAAAAA" stroke-opacity="0.5"/>
      <line x1="1020" y1="0" x2="1020" y2="834" stroke="#AAAAAA" stroke-opacity="0.25"/>
      <line x1="1032" y1="0" x2="1032" y2="834" stroke="#AAAAAA" stroke-opacity="0.25"/>
      <line x1="1044" y1="0" x2="1044" y2="834" stroke="#AAAAAA" stroke-opacity="0.25"/>
      <line x1="1056" y1="0" x2="1056" y2="834" stroke="#AAAAAA" stroke-opacity="0.25"/>
      <line x1="1068" y1="0" x2="1068" y2="834" stroke="#AAAAAA" stroke-opacity="0.25"/>
      <line x1="1080" y1="0" x2="1080" y2="834" stroke="#AAAAAA" stroke-opacity="0.5"/>
      <line x1="1092" y1="0" x2="1092" y2="834" stroke="#AAAAAA" stroke-opacity="0.25"/>
      <line x1="1104" y1="0" x2="1104" y2="834" stroke="#AAAAAA" stroke-opacity="0.25"/>
      <line x1="1116" y1="0" x2="1116" y2="834" stroke="#AAAAAA" stroke-opacity="0.25"/>
      <line x1="1128" y1="0" x2="1128" y2="834" stroke="#AAAAAA" stroke-opacity="0.25"/>
      <line x1="1140" y1="0" x2="1140" y2="834" stroke="#AAAAAA" stroke-opacity="0.25"/>
      <line x1="1152" y1="0" x2="1152" y2="834" stroke="#AAAAAA" stroke-opacity="0.5"/>
      <line x1="1164" y1="0" x2="1164" y2="834" stroke="#AAAAAA" stroke-opacity="0.25"/>
      <line x1="1176" y1="0" x2="1176" y2="834" stroke="#AAAAAA" stroke-opacity="0.25"/>
      <line x1="1188" y1="0" x2="1188" y2="834" stroke="#AAAAAA" stroke-opacity="0.25"/>
      <line x1="0" y1="12" x2="1194" y2="12" stroke="#AAAAAA" stroke-opacity="0.25"/>
      <line x1="0" y1="24" x2="1194" y2="24" stroke="#AAAAAA" stroke-opacity="0.25"/>
      <line x1="0" y1="36" x2="1194" y2="36" stroke="#AAAAAA" stroke-opacity="0.25"/>
      <line x1="0" y1="48" x2="1194" y2="48" stroke="#AAAAAA" stroke-opacity="0.25"/>
      <line x1="0" y1="60" x2="1194" y2="60" stroke="#AAAAAA" stroke-opacity="0.25"/>
      <line x1="0" y1="72" x2="1194" y2="72" stroke="#AAAAAA" stroke-opacity="0.5"/>
      <line x1="0" y1="84" x2="1194" y2="84" stroke="#AAAAAA" stroke-opacity="0.25"/>
      <line x1="0" y1="96" x2="1194" y2="96" stroke="#AAAAAA" stroke-opacity="0.25"/>
      <line x1="0" y1="108" x2="1194" y2="108" stroke="#AAAAAA" stroke-opacity="0.25"/>
      <line x1="0" y1="120" x2="1194" y2="120" stroke="#AAAAAA" stroke-opacity="0.25"/>
      <line x1="0" y1="132" x2="1194" y2="132" stroke="#AAAAAA" stroke-opacity="0.25"/>
      <line x1="0" y1="144" x2="1194" y2="144" stroke="#AAAAAA" stroke-opacity="0.5"/>
      <line x1="0" y1="156" x2="1194" y2="156" stroke="#AAAAAA" stroke-opacity="0.25"/>
      <line x1="0" y1="168" x2="1194" y2="168" stroke="#AAAAAA" stroke-opacity="0.25"/>
      <line x1="0" y1="180" x2="1194" y2="180" stroke="#AAAAAA" stroke-opacity="0.25"/>
      <line x1="0" y1="192" x2="1194" y2="192" stroke="#AAAAAA" stroke-opacity="0.25"/>
      <line x1="0" y1="204" x2="1194" y2="204" stroke="#AAAAAA" stroke-opacity="0.25"/>
      <line x1="0" y1="216" x2="1194" y2="216" stroke="#AAAAAA" stroke-opacity="0.5"/>
      <line x1="0" y1="228" x2="1194" y2="228" stroke="#AAAAAA" stroke-opacity="0.25"/>
      <line x1="0" y1="240" x2="1194" y2="240" stroke="#AAAAAA" stroke-opacity="0.25"/>
      <line x1="0" y1="252" x2="1194" y2="252" stroke="#AAAAAA" stroke-opacity="0.25"/>
      <line x1="0" y1="264" x2="1194" y2="264" stroke="#AAAAAA" stroke-opacity="0.25"/>
      <line x1="0" y1="276" x2="1194" y2="276" stroke="#AAAAAA" stroke-opacity="0.25"/>
      <line x1="0" y1="288" x2="1194" y2="288" stroke="#AAAAAA" stroke-opacity="0.5"/>
      <line x1="0" y1="300" x2="1194" y2="300" stroke="#AAAAAA" stroke-opacity="0.25"/>
      <line x1="0" y1="312" x2="1194" y2="312" stroke="#AAAAAA" stroke-opacity="0.25"/>
      <line x1="0" y1="324" x2="1194" y2="324" stroke="#AAAAAA" stroke-opacity="0.25"/>
      <line x1="0" y1="336" x2="1194" y2="336" stroke="#AAAAAA" stroke-opacity="0.25"/>
      <line x1="0" y1="348" x2="1194" y2="348" stroke="#AAAAAA" stroke-opacity="0.25"/>
      <line x1="0" y1="360" x2="1194" y2="360" stroke="#AAAAAA" stroke-opacity="0.5"/>
      <line x1="0" y1="372" x2="1194" y2="372" stroke="#AAAAAA" stroke-opacity="0.25"/>
      <line x1="0" y1="384" x2="1194" y2="384" stroke="#AAAAAA" stroke-opacity="0.25"/>
      <line x1="0" y1="396" x2="1194" y2="396" stroke="#AAAAAA" stroke-opacity="0.25"/>
      <line x1="0" y1="408" x2="1194" y2="408" stroke="#AAAAAA" stroke-opacity="0.25"/>
      <line x1="0" y1="420" x2="1194" y2="420" stroke="#AAAAAA" stroke-opacity="0.25"/>
      <line x1="0" y1="432" x2="1194" y2="432" stroke="#AAAAAA" stroke-opacity="0.5"/>
      <line x1="0" y1="444" x2="1194" y2="444" stroke="#AAAAAA" stroke-opacity="0.25"/>
      <line x1="0" y1="456" x2="1194" y2="456" stroke="#AAAAAA" stroke-opacity="0.25"/>
      <line x1="0" y1="468" x2="1194" y2="468" stroke="#AAAAAA" stroke-opacity="0.25"/>
      <line x1="0" y1="480" x2="1194" y2="480" stroke="#AAAAAA" stroke-opacity="0.25"/>
      <line x1="0" y1="492" x2="1194" y2="492" stroke="#AAAAAA" stroke-opacity="0.25"/>
      <line x1="0" y1="504" x2="1194" y2="504" stroke="#AAAAAA" stroke-opacity="0.5"/>
      <line x1="0" y1="516" x2="1194" y2="516" stroke="#AAAAAA" stroke-opacity="0.25"/>
      <line x1="0" y1="528" x2="1194" y2="528" stroke="#AAAAAA" stroke-opacity="0.25"/>
      <line x1="0" y1="540" x2="1194" y2="540" stroke="#AAAAAA" stroke-opacity="0.25"/>
      <line x1="0" y1="552" x2="1194" y2="552" stroke="#AAAAAA" stroke-opacity="0.25"/>
      <line x1="0" y1="564" x2="1194" y2="564" stroke="#AAAAAA" stroke-opacity="0.25"/>
      <line x1="0" y1="576" x2="1194" y2="576" stroke="#AAAAAA" stroke-opacity="0.5"/>
      <line x1="0" y1="588" x2="1194" y2="588" stroke="#AAAAAA" stroke-opacity="0.25"/>
      <line x1="0" y1="600" x2="1194" y2="600" stroke="#AAAAAA" stroke-opacity="0.25"/>
      <line x1="0" y1="612" x2="1194" y2="612" stroke="#AAAAAA" stroke-opacity="0.25"/>
      <line x1="0" y1="624" x2="1194" y2="624" stroke="#AAAAAA" stroke-opacity="0.25"/>
      <line x1="0" y1="636" x2="1194" y2="636" stroke="#AAAAAA" stroke-opacity="0.25"/>
      <line x1="0" y1="648" x2="1194" y2="648" stroke="#AAAAAA" stroke-opacity="0.5"/>
      <line x1="0" y1="660" x2="1194" y2="660" stroke="#AAAAAA" stroke-opacity="0.25"/>
      <line x1="0" y1="672" x2="1194" y2="672" stroke="#AAAAAA" stroke-opacity="0.25"/>
      <line x1="0" y1="684" x2="1194" y2="684" stroke="#AAAAAA" stroke-opacity="0.25"/>
      <line x1="0" y1="696" x2="1194" y2="696" stroke="#AAAAAA" stroke-opacity="0.25"/>
      <line x1="0" y1="708" x2="1194" y2="708" stroke="#AAAAAA" stroke-opacity="0.25"/>
      <line x1="0" y1="720" x2="1194" y2="720" stroke="#AAAAAA" stroke-opacity="0.5"/>
      <line x1="0" y1="732" x2="1194" y2="732" stroke="#AAAAAA" stroke-opacity="0.25"/>
      <line x1="0" y1="744" x2="1194" y2="744" stroke="#AAAAAA" stroke-opacity="0.25"/>
      <line x1="0" y1="756" x2="1194" y2="756" stroke="#AAAAAA" stroke-opacity="0.25"/>
      <line x1="0" y1="768" x2="1194" y2="768" stroke="#AAAAAA" stroke-opacity="0.25"/>
      <line x1="0" y1="780" x2="1194" y2="780" stroke="#AAAAAA" stroke-opacity="0.25"/>
      <line x1="0" y1="792" x2="1194" y2="792" stroke="#AAAAAA" stroke-opacity="0.5"/>
      <line x1="0" y1="804" x2="1194" y2="804" stroke="#AAAAAA" stroke-opacity="0.25"/>
      <line x1="0" y1="816" x2="1194" y2="816" stroke="#AAAAAA" stroke-opacity="0.25"/>
      <line x1="0" y1="828" x2="1194" y2="828" stroke="#AAAAAA" stroke-opacity="0.25"/>
    </g>
  </g>
  <g id="Layer_1">
    <g id="Group"/>
    <g>
      <path d="M692.61,308.066 L692.611,308.308 L938.471,308.308 C945.098,308.308 950.471,313.68 950.471,320.308 L950.471,730.279 C950.471,736.906 945.098,742.279 938.471,742.279 L603.327,742.279 C596.7,742.279 591.327,736.906 591.327,730.279 L591.327,591.36 C588.599,555.526 560.245,527.598 524.803,524.005 L410.701,524.382 L410.7,523.975 L409.99,523.903 L409.99,524.586 L243.252,524.586 L243.252,524.539 C183.164,523.139 138.847,476.103 137.348,416.793 C138.038,357.781 184.112,310.543 243.252,309.047 L243.252,309 L409.99,309 L409.99,309.294 L409.991,309.294 L409.99,309 L414.957,308.983 L417.971,308.907 L420.288,308.966 L602.196,308.365 L603.327,308.308 L619.473,308.308 L692.61,308.066 z" fill="#808080"/>
      <path d="M692.61,308.066 L692.611,308.308 L938.471,308.308 C945.098,308.308 950.471,313.68 950.471,320.308 L950.471,730.279 C950.471,736.906 945.098,742.279 938.471,742.279 L603.327,742.279 C596.7,742.279 591.327,736.906 591.327,730.279 L591.327,591.36 C588.599,555.526 560.245,527.598 524.803,524.005 L410.701,524.382 L410.7,523.975 L409.99,523.903 L409.99,524.586 L243.252,524.586 L243.252,524.539 C183.164,523.139 138.847,476.103 137.348,416.793 C138.038,357.781 184.112,310.543 243.252,309.047 L243.252,309 L409.99,309 L409.99,309.294 L409.991,309.294 L409.99,309 L414.957,308.983 L417.971,308.907 L420.288,308.966 L602.196,308.365 L603.327,308.308 L619.473,308.308 L692.61,308.066 z" fill-opacity="0" stroke="#808080" stroke-width="1"/>
    </g>
  </g>
</svg>
