<svg id="图层_1" data-name="图层 1" xmlns="http://www.w3.org/2000/svg" viewBox="0 0 533.56 583.47"><defs><style>.cls-1{fill:#898989;}.cls-2{fill:#f7f8f8;}</style></defs><circle class="cls-1" cx="318.73" cy="368.64" r="214.83"/><circle class="cls-2" cx="11.24" cy="11.24" r="11.24"/><path class="cls-2" d="M236.86,351.61l-17.49-15.32c-16.33,19.06-25.61,45.52-23.72,74.12,1.62,24.39,11.08,46.17,25.42,62.43l15.22-17.38A78.51,78.51,0,0,1,217.5,409C216,386.61,223.65,366,236.86,351.61Z" transform="translate(-50.51 -30.46)"/><circle class="cls-2" cx="178.43" cy="312.07" r="11.7"/><circle class="cls-2" cx="176.43" cy="432.1" r="11.7"/><path class="cls-2" d="M501.37,455.5l17.49,15.32c16.33-19.05,25.61-45.52,23.71-74.12a104.65,104.65,0,0,0-25.42-62.43l-15.21,17.38a78.57,78.57,0,0,1,18.78,46.49C522.2,420.5,514.58,441.1,501.37,455.5Z" transform="translate(-50.51 -30.46)"/><circle class="cls-2" cx="458.78" cy="434.12" r="11.7"/><circle class="cls-2" cx="460.78" cy="314.09" r="11.7"/><g id="_4" data-name="4"><rect class="cls-2" x="242.12" y="300.37" width="52.25" height="52.25" rx="12"/><rect class="cls-2" x="346.37" y="300.37" width="52.25" height="52.25" rx="12"/><rect class="cls-2" x="242.12" y="390.48" width="52.25" height="52.25" rx="12"/><rect class="cls-2" x="346.37" y="390.48" width="52.25" height="52.25" rx="12"/></g></svg>