<svg id="图层_1" data-name="图层 1" xmlns="http://www.w3.org/2000/svg" viewBox="0 0 363.1 363.1"><defs><style>.cls-1{fill:#9fa0a0;}.cls-2{fill:#f7f8f8;}</style></defs><circle class="cls-1" cx="181.55" cy="181.55" r="181.55"/><rect class="cls-2" x="71.66" y="216.63" width="49.66" height="19.88" rx="9.94"/><rect class="cls-2" x="130.28" y="186.86" width="32.59" height="49.66" rx="12"/><rect class="cls-2" x="173.73" y="186.86" width="34.95" height="109.66" rx="12"/><rect class="cls-2" x="229.59" y="158.06" width="16.55" height="78.45" rx="8.28"/><rect class="cls-2" x="262.01" y="186.86" width="37.24" height="49.66" rx="12"/><rect class="cls-1" x="141.26" y="199.35" width="10.63" height="21.34" rx="5.32"/><ellipse class="cls-2" cx="181.55" cy="227.35" rx="7.82" ry="9"/><rect class="cls-1" x="170.71" y="226.57" width="14.72" height="14.72"/><rect class="cls-2" x="173.73" y="197.29" width="34.95" height="39.22" rx="12"/><rect class="cls-1" x="168.37" y="236.51" width="17.05" height="11.84"/><rect class="cls-1" x="176.89" y="236.51" width="24.98" height="42.84" rx="9.33"/><rect class="cls-1" x="185.43" y="199.35" width="10.63" height="21.34" rx="5.32"/><rect class="cls-1" x="166.71" y="242.43" width="32" height="36.92" rx="12"/><circle class="cls-2" cx="178.64" cy="279.35" r="4.91"/><rect class="cls-1" x="267.63" y="196.68" width="34.75" height="30" rx="12"/><rect class="cls-2" x="71.66" y="87.68" width="7.71" height="141.33" rx="3.86"/><rect class="cls-1" x="223.37" y="167.72" width="29" height="17.67" rx="5.17"/></svg>