<svg id="图层_1" data-name="图层 1" xmlns="http://www.w3.org/2000/svg" viewBox="0 0 286.09 286.09"><defs><style>.cls-1{fill:#97afc8;}.cls-2{fill:#f7f8f8;}</style></defs><circle class="cls-1" cx="143.04" cy="143.04" r="143.04"/><rect class="cls-2" x="37.82" y="162.9" width="49.66" height="28.75" rx="9.94"/><rect class="cls-2" x="91.69" y="131.63" width="42.09" height="59.96" rx="12"/><rect class="cls-2" x="139.89" y="144.51" width="34.95" height="109.66" rx="12"/><rect class="cls-2" x="189.53" y="111.68" width="22.78" height="82.49" rx="8.28"/><rect class="cls-2" x="218.53" y="134.21" width="46.88" height="59.96" rx="12"/><ellipse class="cls-2" cx="147.71" cy="185.01" rx="7.82" ry="9"/><rect class="cls-1" x="136.86" y="184.23" width="14.72" height="14.72"/><rect class="cls-2" x="139.89" y="131.63" width="34.95" height="62.54" rx="12"/><circle class="cls-2" cx="144.8" cy="237.01" r="4.91"/><rect class="cls-2" x="37.82" y="67.68" width="16.05" height="123.91" rx="8.02"/><rect class="cls-1" x="107.42" y="157.01" width="10.63" height="21.34" rx="5.32"/><rect class="cls-1" x="151.58" y="157.01" width="10.63" height="21.34" rx="5.32"/><rect class="cls-1" x="134.53" y="194.17" width="17.05" height="11.84"/><rect class="cls-1" x="143.04" y="194.17" width="24.98" height="42.84" rx="9.33"/><rect class="cls-1" x="132.86" y="200.09" width="32" height="36.92" rx="12"/><rect class="cls-1" x="233.78" y="154.34" width="46.08" height="30" rx="12"/><rect class="cls-1" x="184.2" y="125.38" width="34.33" height="17.67" rx="5.17"/></svg>